<?xml version="1.0" encoding="UTF-8"?>
<svg version="1.1" xmlns="http://www.w3.org/2000/svg" width="320" height="128">
<path d="M0 0 C105.6 0 211.2 0 320 0 C320 42.24 320 84.48 320 128 C214.4 128 108.8 128 0 128 C0 85.76 0 43.52 0 0 Z " fill="#FEFEFE" transform="translate(0,0)"/>
<path d="M0 0 C11.88 0 23.76 0 36 0 C36 12.37381309 36 12.37381309 35.16015625 17.734375 C34.98419922 18.88550781 34.80824219 20.03664063 34.62695312 21.22265625 C34.44068359 22.38667969 34.25441406 23.55070312 34.0625 24.75 C33.88009766 25.92949219 33.69769531 27.10898437 33.50976562 28.32421875 C33.16199283 30.57272792 32.81142512 32.82080732 32.45751953 35.06835938 C31.94144383 38.37520944 31.46041571 41.68500692 31 45 C22.96694119 44.37268955 15.41555566 42.50604794 7.625 40.5 C6.35527344 40.17902344 5.08554687 39.85804687 3.77734375 39.52734375 C-5.44492885 37.18502372 -5.44492885 37.18502372 -9 36 C-8.01180746 27.92408169 -6.08401856 20.20998337 -3.9375 12.375 C-3.6679248 11.39063965 -3.39834961 10.4062793 -3.12060547 9.39208984 C-1.14404393 2.28808785 -1.14404393 2.28808785 0 0 Z " fill="#97A7D7" transform="translate(284,0)"/>
<path d="M0 0 C0.33 1.32 0.66 2.64 1 4 C2.0828125 3.2575 2.0828125 3.2575 3.1875 2.5 C6.14848659 0.92080715 7.71253029 0.71821688 11 1 C11.33 1.99 11.66 2.98 12 4 C12.7425 4.268125 13.485 4.53625 14.25 4.8125 C17.95109214 6.41069888 20.25917306 8.397059 22 12 C22.92056244 17.34084933 22.67263348 21.60490833 20.3125 26.5 C16.6369874 30.47352714 13.98193241 32.15561677 8.5625 32.4375 C2.81450363 32.22744033 -0.35972819 29.73139802 -4.25 25.625 C-6.14106535 22.78840198 -7.09364422 20.27682475 -8 17 C-8.309375 16.319375 -8.61875 15.63875 -8.9375 14.9375 C-9 13 -9 13 -6.625 10.375 C-5.75875 9.59125 -4.8925 8.8075 -4 8 C-3.67 7.34 -3.34 6.68 -3 6 C-4.32 6 -5.64 6 -7 6 C-7 5.01 -7 4.02 -7 3 C-4.46815512 0.64276511 -3.52809907 0 0 0 Z " fill="#777777" transform="translate(10,0)"/>
<path d="M0 0 C0.42410156 0.37511719 0.84820313 0.75023438 1.28515625 1.13671875 C5.36517338 4.69664579 9.5513476 7.91317997 14 11 C11.41878892 14.36679706 9.42793264 15.26527446 5.375 15.9375 C1.87676381 16.49162871 1.87676381 16.49162871 -0.4375 19 C-0.77334939 20.79119674 -1.10734766 22.58274444 -1.4375 24.375 C-1.6025 25.24125 -1.7675 26.1075 -1.9375 27 C-2.09863281 27.86367187 -2.25976562 28.72734375 -2.42578125 29.6171875 C-3.11337409 32.47046392 -4.26832693 34.63862763 -6 37 C-11.97031739 36.70876501 -14.894534 33.97185616 -19 30 C-17.02 32.97 -17.02 32.97 -15 36 C-18.79379058 34.50958227 -20.68343758 32.30937488 -23 29 C-23 27 -23 27 -20.8125 24.5625 C-16.51873264 20.65040085 -12.54546952 18.6765373 -7 17 C-8.98 17.33 -10.96 17.66 -13 18 C-11.35 15.36 -9.7 12.72 -8 10 C-8.33 9.67 -8.66 9.34 -9 9 C-8.70249368 6.17368997 -8.34344451 4.43303873 -6.5625 2.1875 C-5 1 -5 1 -3 1 C-3.33 2.32 -3.66 3.64 -4 5 C-1.48916886 3.74458443 -1.12874554 2.49936512 0 0 Z " fill="#FDFDFD" transform="translate(24,87)"/>
<path d="M0 0 C2.59855168 -0.00072077 5.19709839 -0.00287376 7.79564881 -0.00549722 C16.91149367 -0.01468067 26.02732412 -0.01884027 35.14317346 -0.01804566 C43.56329993 -0.0174441 51.98336252 -0.02802958 60.40347284 -0.04378933 C67.70617415 -0.05695782 75.00885478 -0.06222582 82.31156784 -0.06159025 C86.64126463 -0.06133835 90.97090419 -0.06401704 95.30058885 -0.0747683 C144.72371554 -0.18876909 144.72371554 -0.18876909 152.67906213 4.16725707 C146.02321732 4.26643357 139.41746603 4.24672585 132.77439809 3.81279349 C116.37261314 2.78094651 99.91946833 3.02079001 83.49320126 3.03293157 C78.92869455 3.03549599 74.36418966 3.03310678 69.79968286 3.0315454 C62.15034135 3.02973713 54.50100957 3.03209625 46.85166955 3.03688598 C38.03438931 3.04234358 29.21713215 3.04054968 20.39985245 3.03505957 C12.78659945 3.03051093 5.17335335 3.02988593 -2.43990058 3.03249824 C-6.968834 3.03404913 -11.49775659 3.03428721 -16.02668929 3.03096175 C-20.27779759 3.02805686 -24.52887625 3.03010649 -28.77998137 3.03585601 C-30.33149518 3.03716887 -31.88301152 3.03681481 -33.4345243 3.03459334 C-40.98556025 3.02478439 -48.46294446 3.10859203 -55.97656131 3.94695258 C-59.76470742 4.3029302 -63.5189861 4.22958415 -67.32093787 4.16725707 C-67.32093787 3.50725707 -67.32093787 2.84725707 -67.32093787 2.16725707 C-45.16338604 -0.92866456 -22.33333689 0.00349504 0 0 Z " fill="#DF8A79" transform="translate(117.32093787193298,74.83274292945862)"/>
<path d="M0 0 C2.475 0.495 2.475 0.495 5 1 C4.01 1.66 3.02 2.32 2 3 C6.59675742 9.08959504 10.76111553 12.50496499 18 15 C18.33 14.34 18.66 13.68 19 13 C19.495 14.98 19.495 14.98 20 17 C16.125 19 16.125 19 15 19 C14.731875 19.721875 14.46375 20.44375 14.1875 21.1875 C13.01017502 23.97590126 11.60854116 26.44095724 10 29 C9.505 27.515 9.505 27.515 9 26 C8.01 27.32 7.02 28.64 6 30 C6.66 30.33 7.32 30.66 8 31 C6.68 32.32 5.36 33.64 4 35 C3.67 34.34 3.34 33.68 3 33 C2.34 32.67 1.68 32.34 1 32 C3.31 29.36 5.62 26.72 8 24 C5.36 24.66 2.72 25.32 0 26 C-0.09087891 27.22976562 -0.09087891 27.22976562 -0.18359375 28.484375 C-0.26738281 29.56203125 -0.35117187 30.6396875 -0.4375 31.75 C-0.51871094 32.81734375 -0.59992187 33.8846875 -0.68359375 34.984375 C-1.24647211 40.34909221 -2.44411041 42.88822082 -5 48 C-11.6 48 -18.2 48 -25 48 C-25.80357143 30.72321429 -25.80357143 30.72321429 -22.25 26.8125 C-21.17307245 25.86764847 -20.09001708 24.92972045 -19 24 C-18.21263231 22.87951521 -17.45931956 21.733952 -16.75 20.5625 C-16.1725 19.716875 -15.595 18.87125 -15 18 C-14.34 18 -13.68 18 -13 18 C-12.34 16.68 -11.68 15.36 -11 14 C-10.67 14.66 -10.34 15.32 -10 16 C-9.01 15.67 -8.02 15.34 -7 15 C-7 15.66 -7 16.32 -7 17 C-9 19 -9 19 -11 21 C-11.33 21.99 -11.66 22.98 -12 24 C-8.535 23.505 -8.535 23.505 -5 23 C-5.33 23.66 -5.66 24.32 -6 25 C-8.109375 25.67578125 -8.109375 25.67578125 -10.75 26.3125 C-15.42084345 27.61180738 -17.78188242 29.29428884 -21 33 C-22.485 33.495 -22.485 33.495 -24 34 C-21.62370911 38.14670039 -21.62370911 38.14670039 -18 41 C-18.99 40.01 -19.98 39.02 -21 38 C-20.67 37.34 -20.34 36.68 -20 36 C-19.56429688 36.42152344 -19.12859375 36.84304687 -18.6796875 37.27734375 C-14.88986541 40.76365195 -12.35440266 42.73880963 -7 43 C-4.47129973 37.82765853 -3.35242183 33.05243648 -2.52734375 27.35546875 C-2 25 -2 25 0 23 C2.25577528 22.42214485 4.51340296 22.04962025 6.80859375 21.66015625 C9.29213818 20.91199402 10.34268197 19.95574185 12 18 C11.22914062 17.44570312 10.45828125 16.89140625 9.6640625 16.3203125 C8.15972656 15.23363281 8.15972656 15.23363281 6.625 14.125 C5.62726562 13.40570313 4.62953125 12.68640625 3.6015625 11.9453125 C1 10 1 10 -1 8 C-1.66 10.31 -2.32 12.62 -3 15 C-3.99 14.34 -4.98 13.68 -6 13 C-3.10933941 3.40546697 -3.10933941 3.40546697 0 0 Z " fill="#C1C4C9" transform="translate(25,80)"/>
<path d="M0 0 C-0.26029137 5.52858868 -3.67617399 8.20404071 -7.4375 11.8125 C-8.03626953 12.40998047 -8.63503906 13.00746094 -9.25195312 13.62304688 C-13.71894643 18 -13.71894643 18 -16 18 C-16.2686084 18.59385498 -16.5372168 19.18770996 -16.81396484 19.79956055 C-18.00532232 22.00987445 -19.20211898 23.44647183 -20.9765625 25.20703125 C-21.56123291 25.7904126 -22.14590332 26.37379395 -22.74829102 26.97485352 C-23.36760498 27.58127686 -23.98691895 28.1877002 -24.625 28.8125 C-25.25656006 29.43761475 -25.88812012 30.06272949 -26.53881836 30.70678711 C-30.3719737 34.47698289 -34.2756506 38.12482545 -38.37890625 41.6015625 C-40.71452305 43.61638374 -42.85348906 45.78641059 -45 48 C-46.65 47.34 -48.3 46.68 -50 46 C-50 43 -50 43 -48.84179688 41.48535156 C-48.03838867 40.69596191 -48.03838867 40.69596191 -47.21875 39.890625 C-46.33219727 39.01083984 -46.33219727 39.01083984 -45.42773438 38.11328125 C-44.47350586 37.19095703 -44.47350586 37.19095703 -43.5 36.25 C-42.85869141 35.61964844 -42.21738281 34.98929688 -41.55664062 34.33984375 C-37.70867796 30.58136859 -33.79268014 26.93352638 -29.6796875 23.46484375 C-27.898195 21.91121657 -26.26630771 20.26270632 -24.625 18.5625 C-22 16 -22 16 -20 16 C-19.979375 15.319375 -19.95875 14.63875 -19.9375 13.9375 C-18.24953773 8.64855156 -13.8469202 5.27525443 -9.375 2.1875 C-2.5 -1.25 -2.5 -1.25 0 0 Z " fill="#F9AA94" transform="translate(317,73)"/>
<path d="M0 0 C1.4375 2.0625 1.4375 2.0625 2 4 C2.66 4 3.32 4 4 4 C5.57455739 7.14911479 5.34799118 9.52008816 5 13 C3.0625 16.4375 3.0625 16.4375 0 19 C-3.10236641 19.66285237 -5.91071044 19.74628905 -9 19 C-10.66796875 17.5390625 -10.66796875 17.5390625 -12 16 C-12.556875 15.608125 -13.11375 15.21625 -13.6875 14.8125 C-15.56512634 12.21958744 -15.47077021 10.00919637 -15.3671875 6.8671875 C-15 5 -15 5 -13.0625 3.125 C-12.381875 2.75375 -11.70125 2.3825 -11 2 C-10.67 1.34 -10.34 0.68 -10 0 C-6.21603308 -1.26132231 -3.85909105 -0.91214879 0 0 Z " fill="#F5F5F5" transform="translate(23,8)"/>
<path d="M0 0 C1.65 0.33 3.3 0.66 5 1 C4.01 1.66 3.02 2.32 2 3 C6.59675742 9.08959504 10.76111553 12.50496499 18 15 C18.33 14.34 18.66 13.68 19 13 C19.33 14.32 19.66 15.64 20 17 C16.125 19 16.125 19 15 19 C14.731875 19.721875 14.46375 20.44375 14.1875 21.1875 C13.01017502 23.97590126 11.60854116 26.44095724 10 29 C9.67 28.01 9.34 27.02 9 26 C8.01 27.32 7.02 28.64 6 30 C6.66 30.33 7.32 30.66 8 31 C6.68 32.32 5.36 33.64 4 35 C3.67 34.34 3.34 33.68 3 33 C2.34 32.67 1.68 32.34 1 32 C3.31 29.36 5.62 26.72 8 24 C5.36 24.66 2.72 25.32 0 26 C-0.06058594 26.81984375 -0.12117188 27.6396875 -0.18359375 28.484375 C-0.26738281 29.56203125 -0.35117187 30.6396875 -0.4375 31.75 C-0.51871094 32.81734375 -0.59992187 33.8846875 -0.68359375 34.984375 C-1.15625773 39.48927118 -1.5204541 41.97430791 -5 45 C-5.66 44.34 -6.32 43.68 -7 43 C-6.54625 42.071875 -6.0925 41.14375 -5.625 40.1875 C-3.80993992 36.02905248 -3.17464923 31.82495894 -2.52734375 27.35546875 C-2 25 -2 25 0 23 C2.25577528 22.42214485 4.51340296 22.04962025 6.80859375 21.66015625 C9.29213818 20.91199402 10.34268197 19.95574185 12 18 C11.22914062 17.44570312 10.45828125 16.89140625 9.6640625 16.3203125 C8.66117188 15.59585938 7.65828125 14.87140625 6.625 14.125 C5.62726562 13.40570313 4.62953125 12.68640625 3.6015625 11.9453125 C1 10 1 10 -1 8 C-1.66 10.31 -2.32 12.62 -3 15 C-3.99 14.34 -4.98 13.68 -6 13 C-3.10933941 3.40546697 -3.10933941 3.40546697 0 0 Z " fill="#C4C7CC" transform="translate(25,80)"/>
<path d="M0 0 C0 2.31 0 4.62 0 7 C-0.65484375 7.36762451 -1.3096875 7.73524902 -1.984375 8.11401367 C-4.99069284 9.80320974 -7.9953536 11.4953328 -11 13.1875 C-12.02996094 13.76564453 -13.05992187 14.34378906 -14.12109375 14.93945312 C-15.63896484 15.79506836 -15.63896484 15.79506836 -17.1875 16.66796875 C-18.18136719 17.22790527 -19.17523438 17.7878418 -20.19921875 18.36474609 C-23.32492915 20.18971195 -26.32308339 22.15898735 -29.28125 24.2434082 C-31.53046167 25.23350863 -32.73009422 24.79739152 -35 24 C-35.33 22.68 -35.66 21.36 -36 20 C-30.56416667 16.78362932 -25.12708455 13.56939818 -19.6875 10.359375 C-16.43341711 8.43903793 -13.18196403 6.51466447 -9.9375 4.578125 C-8.885625 3.95421875 -7.83375 3.3303125 -6.75 2.6875 C-5.85796875 2.15511719 -4.9659375 1.62273437 -4.046875 1.07421875 C-2 0 -2 0 0 0 Z " fill="#4158A0" transform="translate(320,100)"/>
<path d="M0 0 C0.99 0 1.98 0 3 0 C3.16677223 8.04212755 2.6466598 15.98603754 2 24 C-6.96523405 24.61593211 -6.96523405 24.61593211 -10.625 22.4375 C-12.56777996 18.99348099 -12.61493641 16.89459726 -12 13 C-9.9375 10 -9.9375 10 -7 8 C-3.1875 8.1875 -3.1875 8.1875 0 9 C0 6.03 0 3.06 0 0 Z " fill="#424244" transform="translate(177,46)"/>
<path d="M0 0 C0.99 0.99 1.98 1.98 3 3 C3.66 2.34 4.32 1.68 5 1 C6.32 1 7.64 1 9 1 C9 1.66 9 2.32 9 3 C9.99 2.34 10.98 1.68 12 1 C14.5625 1.0625 14.5625 1.0625 17 2 C18.91780721 5.67852441 19.22398481 8.70463035 19.125 12.8125 C19.10695312 13.78832031 19.08890625 14.76414062 19.0703125 15.76953125 C19.04710937 16.50558594 19.02390625 17.24164063 19 18 C18.01 17.67 17.02 17.34 16 17 C15.505 10.565 15.505 10.565 15 4 C13.02 4.99 13.02 4.99 11 6 C11 9.96 11 13.92 11 18 C10.01 18 9.02 18 8 18 C7.34 13.71 6.68 9.42 6 5 C2.8388984 8.1611016 2.61187259 8.5561582 2.3125 12.6875 C2.21388672 13.89986328 2.21388672 13.89986328 2.11328125 15.13671875 C2.07589844 15.75160156 2.03851563 16.36648437 2 17 C1.01 17 0.02 17 -1 17 C-1.02684679 14.35409986 -1.04676357 11.70846904 -1.0625 9.0625 C-1.07087891 8.30775391 -1.07925781 7.55300781 -1.08789062 6.77539062 C-1.09652441 4.85005687 -1.05224333 2.92464419 -1 1 C-0.67 0.67 -0.34 0.34 0 0 Z " fill="#464648" transform="translate(127,53)"/>
<path d="M0 0 C4.07395078 0.39172604 5.56600957 1.23380509 8.25 4.3125 C8.875 7.8125 8.875 7.8125 8.25 11.3125 C5.699054 14.15498268 4.2603853 15.22268797 0.4375 15.5625 C-0.284375 15.48 -1.00625 15.3975 -1.75 15.3125 C-1.75 17.9525 -1.75 20.5925 -1.75 23.3125 C-2.74 23.3125 -3.73 23.3125 -4.75 23.3125 C-4.87802798 15.9580037 -4.83958956 8.60333385 -3.75 1.3125 C-2.75 0.3125 -2.75 0.3125 0 0 Z " fill="#3E3E3F" transform="translate(98.75,45.6875)"/>
<path d="M0 0 C2.8125 1 2.8125 1 4.8125 4 C5.11677702 8.18380896 5.25516449 11.47170685 2.8125 15 C-0.01633747 16.41441874 -2.06126745 16.31900332 -5.1875 16 C-7.9446147 13.70240442 -8.16997267 12.12050037 -8.6875 8.5625 C-8.1875 5 -8.1875 5 -6.0625 2 C-3.1875 0 -3.1875 0 0 0 Z " fill="#444446" transform="translate(157.1875,54)"/>
<path d="M0 0 C2.80449388 2.57710248 3.87201338 4.23208028 4.5 8 C3.86671285 11.79972291 2.86795763 13.43393265 0 16 C-3.0625 16.5 -3.0625 16.5 -6 16 C-8.11323254 14.40012347 -8.89837136 13.49715634 -9.43359375 10.87890625 C-9.44405682 4.6743085 -9.44405682 4.6743085 -7.3125 1.4375 C-4.49326807 -0.31499552 -3.25163553 -0.73161799 0 0 Z " fill="#3E3E40" transform="translate(119,54)"/>
<path d="M0 0 C2.79414968 0.66177229 3.61360043 1.33072669 5.375 3.5625 C6.13095176 7.5868314 5.89418919 11.37990239 4.25 15.125 C2.375 16.5625 2.375 16.5625 -0.625 17 C-3.625 16.5625 -3.625 16.5625 -5.4375 15.5 C-7.32041176 12.42788081 -7.625 10.15877786 -7.625 6.5625 C-5.92163145 3.11054073 -3.88116035 0.83167722 0 0 Z " fill="#49494B" transform="translate(189.625,53.4375)"/>
<path d="M0 0 C2.9084931 1.30116797 3.91857884 2.22631142 5.375 5.0625 C5.94054202 8.85971069 5.64789799 10.57968047 3.75 13.9375 C1.375 16.0625 1.375 16.0625 -1.6875 16.5625 C-4.625 16.0625 -4.625 16.0625 -6.5 15.0625 C-8.32558259 11.81701984 -8.36431518 8.62088616 -7.625 5.0625 C-4.0782872 0.09710208 -4.0782872 0.09710208 0 0 Z " fill="#3D3D3F" transform="translate(220.625,53.9375)"/>
<path d="M0 0 C0.33 1.32 0.66 2.64 1 4 C2.0828125 3.2575 2.0828125 3.2575 3.1875 2.5 C6.14848659 0.92080715 7.71253029 0.71821688 11 1 C11.33 1.99 11.66 2.98 12 4 C12.7425 4.268125 13.485 4.53625 14.25 4.8125 C17.95109214 6.41069888 20.25917306 8.397059 22 12 C22.89910563 17.21636286 22.99755526 22.16430729 20 26.6875 C19.34 27.450625 18.68 28.21375 18 29 C17.34 28.67 16.68 28.34 16 28 C16.99 26.7625 16.99 26.7625 18 25.5 C20.62985094 21.54118525 20.52061469 18.68553223 20 14 C18.36919208 10.33068217 16.54566411 7.9165752 13 6 C8.44037789 4.97040791 6.11112111 4.62263811 1.6875 6.125 C-1.40535087 8.28280293 -2.62425771 9.48421415 -4 13 C-4.57796155 18.04569609 -4.36700667 22.41392458 -2 27 C-5.50496475 23.96236388 -6.79330836 21.45547684 -8 17 C-8.309375 16.319375 -8.61875 15.63875 -8.9375 14.9375 C-9 13 -9 13 -6.625 10.375 C-5.75875 9.59125 -4.8925 8.8075 -4 8 C-3.67 7.34 -3.34 6.68 -3 6 C-4.32 6 -5.64 6 -7 6 C-7 5.01 -7 4.02 -7 3 C-4.46815512 0.64276511 -3.52809907 0 0 0 Z " fill="#434343" transform="translate(10,0)"/>
<path d="M0 0 C0.92393555 0.07839111 1.84787109 0.15678223 2.79980469 0.23754883 C3.65477539 0.32157959 4.50974609 0.40561035 5.390625 0.4921875 C6.51259277 0.60216064 6.51259277 0.60216064 7.65722656 0.71435547 C9.95566632 1.1653559 11.71048462 1.99110323 13.75 3.125 C6.2724448 3.23478466 -1.13302828 3.11263658 -8.59375 2.65625 C-21.03293048 1.9517164 -33.48214795 1.77753497 -45.9375 1.5625 C-48.30794815 1.51917673 -50.67839093 1.47555877 -53.04882812 1.43164062 C-58.78249483 1.32603924 -64.51621638 1.22403936 -70.25 1.125 C-70.25 0.795 -70.25 0.465 -70.25 0.125 C-18.63500416 -1.60408397 -18.63500416 -1.60408397 0 0 Z " fill="#CF4E35" transform="translate(256.25,75.875)"/>
<path d="M0 0 C10.89 0 21.78 0 33 0 C33 2.64 33 5.28 33 8 C29.18728726 7.20935569 25.37486976 6.41729634 21.5625 5.625 C20.49322266 5.40328125 19.42394531 5.1815625 18.32226562 4.953125 C12.20398869 3.68082276 6.09672686 2.37192382 0 1 C0 0.67 0 0.34 0 0 Z " fill="#FBFBFD" transform="translate(287,0)"/>
<path d="M0 0 C0.66 0.33 1.32 0.66 2 1 C1.75898603 6.56427915 -1.76018887 9.21853469 -5.5625 12.8125 C-6.17802734 13.40998047 -6.79355469 14.00746094 -7.42773438 14.62304688 C-8.94293249 16.0912621 -10.47030438 17.54689553 -12 19 C-14.475 18.01 -14.475 18.01 -17 17 C-15.45212498 13.16549144 -13.06277254 10.97444301 -10 8.25 C-8.6696875 7.05117187 -8.6696875 7.05117187 -7.3125 5.828125 C-5 4 -5 4 -3 4 C-2.67 3.01 -2.34 2.02 -2 1 C-1.34 0.67 -0.68 0.34 0 0 Z " fill="#D2553C" transform="translate(315,72)"/>
<path d="M0 0 C0.33 0.66 0.66 1.32 1 2 C1.99 1.67 2.98 1.34 4 1 C4 1.66 4 2.32 4 3 C2 5 2 5 0 7 C-0.33 7.99 -0.66 8.98 -1 10 C2.465 9.505 2.465 9.505 6 9 C5.67 9.66 5.34 10.32 5 11 C2.890625 11.67578125 2.890625 11.67578125 0.25 12.3125 C-4.42949967 13.60753985 -6.73657958 15.34101347 -10 19 C-10.99 19 -11.98 19 -13 19 C-12.42024654 15.08666411 -10.49336653 12.99203984 -8 10 C-7.29875 8.906875 -6.5975 7.81375 -5.875 6.6875 C-5.25625 5.800625 -4.6375 4.91375 -4 4 C-3.34 4 -2.68 4 -2 4 C-1.34 2.68 -0.68 1.36 0 0 Z " fill="#DBDCDF" transform="translate(14,94)"/>
<path d="M0 0 C1.88078247 0.00212242 1.88078247 0.00212242 3.79956055 0.00428772 C7.10717967 0.00891544 10.41474863 0.01787522 13.72235107 0.0289917 C17.10786327 0.03928449 20.49338286 0.04380208 23.87890625 0.04882812 C30.50262354 0.05982178 37.12630768 0.07653332 43.75 0.09765625 C43.75 0.42765625 43.75 0.75765625 43.75 1.09765625 C42.52708252 1.1227124 41.30416504 1.14776855 40.04418945 1.17358398 C35.39764281 1.26954599 30.75118231 1.36926214 26.10473633 1.4699707 C24.11419728 1.51262169 22.12363767 1.55432629 20.13305664 1.5949707 C6.32462321 1.87777301 -7.45769883 2.37052478 -21.25 3.09765625 C-21.25 2.43765625 -21.25 1.77765625 -21.25 1.09765625 C-14.14951444 -0.00796893 -7.17639788 -0.03072499 0 0 Z " fill="#D4654F" transform="translate(71.25,75.90234375)"/>
<path d="M0 0 C-0.20625 0.598125 -0.4125 1.19625 -0.625 1.8125 C-1.30671915 4.28450846 -1.30671915 4.28450846 1 7 C1.32727273 12.34545455 1.32727273 12.34545455 0 15 C-2.28515625 15.6328125 -2.28515625 15.6328125 -5.0625 16.125 C-5.98160156 16.29257813 -6.90070312 16.46015625 -7.84765625 16.6328125 C-8.55792969 16.75398438 -9.26820312 16.87515625 -10 17 C-8.35 14.36 -6.7 11.72 -5 9 C-5.33 8.67 -5.66 8.34 -6 8 C-5.70249368 5.17368997 -5.34344451 3.43303873 -3.5625 1.1875 C-2 0 -2 0 0 0 Z " fill="#FCFCFC" transform="translate(21,88)"/>
<path d="M0 0 C-2.31 2.64 -4.62 5.28 -7 8 C-6.34 8 -5.68 8 -5 8 C-4.63541667 12.49652778 -4.63541667 12.49652778 -6.3125 14.8125 C-8 16 -8 16 -11 16 C-11.18747702 10.65690482 -11.27976042 5.95600092 -9 1 C-3.07692308 -1.53846154 -3.07692308 -1.53846154 0 0 Z " fill="#FDFDFD" transform="translate(34,104)"/>
<path d="M0 0 C0.99 0.33 1.98 0.66 3 1 C5.3406065 0.72230092 7.67624308 0.39460023 10 0 C10 1.98 10 3.96 10 6 C9.34 6 8.68 6 8 6 C8 5.01 8 4.02 8 3 C6.35 3.33 4.7 3.66 3 4 C2.67 7.96 2.34 11.92 2 16 C1.01 16 0.02 16 -1 16 C-1.02685095 13.52076199 -1.04676547 11.0418116 -1.0625 8.5625 C-1.07506836 7.50192383 -1.07506836 7.50192383 -1.08789062 6.41992188 C-1.09653588 4.61306441 -1.05220011 2.80612397 -1 1 C-0.67 0.67 -0.34 0.34 0 0 Z " fill="#3C3C3E" transform="translate(200,54)"/>
<path d="M0 0 C1.65 0.33 3.3 0.66 5 1 C4.01 1.66 3.02 2.32 2 3 C2.825 3.928125 3.65 4.85625 4.5 5.8125 C7 8.625 7 8.625 7 12 C3.31245243 11.50168276 1.39509338 10.89932357 -1 8 C-1.66 10.31 -2.32 12.62 -3 15 C-3.99 14.34 -4.98 13.68 -6 13 C-3.10933941 3.40546697 -3.10933941 3.40546697 0 0 Z " fill="#C4C7CC" transform="translate(25,80)"/>
<path d="M0 0 C2.4375 0.1875 2.4375 0.1875 3.4375 1.1875 C3.5703125 3 3.5703125 3 3.5625 5.1875 C3.56507813 5.909375 3.56765625 6.63125 3.5703125 7.375 C3.4375 9.1875 3.4375 9.1875 2.4375 10.1875 C0 10.375 0 10.375 -2.5625 10.1875 C-4.5625 8.1875 -4.5625 8.1875 -4.8125 5.1875 C-4.49521834 1.38012011 -3.88988006 0.28462537 0 0 Z " fill="#FAFAFA" transform="translate(172.5625,56.8125)"/>
<path d="M0 0 C0.99 0.99 1.98 1.98 3 3 C3.66 2.34 4.32 1.68 5 1 C7.125 1.375 7.125 1.375 9 2 C8.01 2.66 7.02 3.32 6 4 C2.21057002 7.64368268 2.30823186 12.02577554 2 17 C1.01 17 0.02 17 -1 17 C-1.02684679 14.35409986 -1.04676357 11.70846904 -1.0625 9.0625 C-1.07087891 8.30775391 -1.07925781 7.55300781 -1.08789062 6.77539062 C-1.09652441 4.85005687 -1.05224333 2.92464419 -1 1 C-0.67 0.67 -0.34 0.34 0 0 Z " fill="#3D3D3F" transform="translate(127,53)"/>
<path d="M0 0 C11.10542835 0.4833978 22.00535504 1.32972208 33 3 C33 3.33 33 3.66 33 4 C21.96086055 4.16207546 11.01559238 3.65764731 0 3 C0 2.01 0 1.02 0 0 Z " fill="#DA7B68" transform="translate(237,75)"/>
<path d="M0 0 C2.31 0 4.62 0 7 0 C6.01 1.485 6.01 1.485 5 3 C4.34 3 3.68 3 3 3 C3 3.99 3 4.98 3 6 C4.32 6 5.64 6 7 6 C5.52307692 10.67692308 5.52307692 10.67692308 2.875 12.3125 C1.946875 12.6528125 1.946875 12.6528125 1 13 C0 12 0 12 -0.09765625 9.27734375 C-0.08605469 8.17519531 -0.07445312 7.07304687 -0.0625 5.9375 C-0.05347656 4.83277344 -0.04445312 3.72804687 -0.03515625 2.58984375 C-0.02355469 1.73519531 -0.01195312 0.88054687 0 0 Z " fill="#F6F6F6" transform="translate(0,0)"/>
<path d="M0 0 C1.32 0 2.64 0 4 0 C5.36952673 2.73905345 5.12621361 4.97087332 5 8 C4.67 8.66 4.34 9.32 4 10 C2.33388095 10.042721 0.66617115 10.04063832 -1 10 C-2 9 -2 9 -2.1875 6.125 C-2 3 -2 3 0 0 Z " fill="#F2F2F2" transform="translate(154,57)"/>
<path d="M0 0 C3.53571429 0.53571429 3.53571429 0.53571429 5 2 C5.1875 4.9375 5.1875 4.9375 5 8 C4.34 8.66 3.68 9.32 3 10 C0.375 9.625 0.375 9.625 -2 9 C-2.125 5.625 -2.125 5.625 -2 2 C-1.34 1.34 -0.68 0.68 0 0 Z " fill="#F4F4F5" transform="translate(218,57)"/>
<path d="M0 0 C3.53571429 0.53571429 3.53571429 0.53571429 5 2 C5.1875 4.9375 5.1875 4.9375 5 8 C4.34 8.66 3.68 9.32 3 10 C0.375 9.625 0.375 9.625 -2 9 C-2.125 5.625 -2.125 5.625 -2 2 C-1.34 1.34 -0.68 0.68 0 0 Z " fill="#F3F3F3" transform="translate(115,57)"/>
<path d="M0 0 C3.63 1.65 7.26 3.3 11 5 C11.33 4.34 11.66 3.68 12 3 C12.33 4.32 12.66 5.64 13 7 C9.125 9 9.125 9 8 9 C7.67 9.66 7.34 10.32 7 11 C6.34 10.34 5.68 9.68 5 9 C4.175 8.360625 3.35 7.72125 2.5 7.0625 C0 5 0 5 -2 2 C-1.34 2 -0.68 2 0 2 C0 1.34 0 0.68 0 0 Z " fill="#A6A9B1" transform="translate(32,90)"/>
<path d="M0 0 C0.598125 0.226875 1.19625 0.45375 1.8125 0.6875 C1.8125 3.3275 1.8125 5.9675 1.8125 8.6875 C-0.5625 9.3125 -0.5625 9.3125 -3.1875 9.6875 C-5.1875 7.6875 -5.1875 7.6875 -5.5 5.25 C-5.1875 2.6875 -5.1875 2.6875 -3.9375 0.8125 C-2.1875 -0.3125 -2.1875 -0.3125 0 0 Z " fill="#F1F1F1" transform="translate(190.1875,57.3125)"/>
<path d="M0 0 C2.84326464 -0.23053497 4.46145349 -0.35903101 6.875 1.25 C8 3 8 3 7.875 5.0625 C7 7 7 7 4 9 C2.68 9 1.36 9 0 9 C0 6.03 0 3.06 0 0 Z " fill="#EAEAEA" transform="translate(97,49)"/>
<path d="M0 0 C2.6245228 0.99550865 3.95028727 1.93963454 5.75 4.125 C7.35535078 7.8173068 7.7072331 11.07178137 7 15 C4.98497111 18.75212276 3.54533858 20.63644095 0 23 C-2.48046875 23.1953125 -2.48046875 23.1953125 -5.1875 23.125 C-6.08855469 23.10695313 -6.98960938 23.08890625 -7.91796875 23.0703125 C-8.60503906 23.04710938 -9.29210938 23.02390625 -10 23 C-10 22.67 -10 22.34 -10 22 C-9.32453125 21.91363281 -8.6490625 21.82726562 -7.953125 21.73828125 C-3.75581451 21.07714419 -0.76015851 20.5972674 2.625 17.9375 C4.53201338 13.86342597 4.80665482 10.42108891 4 6 C2.88836893 3.65215852 1.66537664 2.02967777 0 0 Z " fill="#EFEFEF" transform="translate(24,7)"/>
<path d="M0 0 C0.99 0 1.98 0 3 0 C3.22084624 6.09781001 3.01167675 11.21642935 1 17 C0.79375 16.4225 0.5875 15.845 0.375 15.25 C-1.49093646 12.19664942 -4.00832426 10.88605645 -7 9 C-7 8.67 -7 8.34 -7 8 C-4.69 8.33 -2.38 8.66 0 9 C0 6.03 0 3.06 0 0 Z " fill="#49494A" transform="translate(177,46)"/>
<path d="M0 0 C2 3 2 3 3 5 C5.52733235 5.65555119 5.52733235 5.65555119 8 6 C8.66 4.02 9.32 2.04 10 0 C10.33 0 10.66 0 11 0 C11.36 5.4 11.36 5.4 9.875 7.875 C7.08893958 9.54663625 5.18011138 9.46376624 2 9 C0.0625 7.3125 0.0625 7.3125 -1 5 C-0.6875 2.25 -0.6875 2.25 0 0 Z " fill="#383839" transform="translate(150,61)"/>
<path d="M0 0 C0.47308594 0.39832031 0.94617188 0.79664062 1.43359375 1.20703125 C6.36397602 5.15710359 10.90032961 7.39036476 17 9 C15 11 15 11 12.1875 11.3125 C8.5895561 10.9597604 6.83937302 10.20840123 4 8 C2.8125 6.0625 2.8125 6.0625 2 4 C1.34020988 2.6632505 0.67442651 1.3294251 0 0 Z " fill="#EFEFF1" transform="translate(4,116)"/>
<path d="M0 0 C0.33 0 0.66 0 1 0 C1 4.29 1 8.58 1 13 C2.65 13.33 4.3 13.66 6 14 C6 14.33 6 14.66 6 15 C3.03 14.67 0.06 14.34 -3 14 C-2.69147815 12.041036 -2.3780582 10.08284287 -2.0625 8.125 C-1.88847656 7.03445312 -1.71445312 5.94390625 -1.53515625 4.8203125 C-1 2 -1 2 0 0 Z " fill="#7787BC" transform="translate(278,22)"/>
<path d="M0 0 C-0.20625 0.598125 -0.4125 1.19625 -0.625 1.8125 C-1.30671915 4.28450846 -1.30671915 4.28450846 1 7 C1.25 10.0625 1.25 10.0625 1 13 C0.34 13.66 -0.32 14.32 -1 15 C-1.33 12.69 -1.66 10.38 -2 8 C-3.32 8 -4.64 8 -6 8 C-5.62403791 5.21788056 -5.32681541 3.4120716 -3.5625 1.1875 C-2 0 -2 0 0 0 Z " fill="#EBEBED" transform="translate(21,88)"/>
<path d="M0 0 C0.53109375 0.40992187 1.0621875 0.81984375 1.609375 1.2421875 C2.31578125 1.78101562 3.0221875 2.31984375 3.75 2.875 C4.44609375 3.40867187 5.1421875 3.94234375 5.859375 4.4921875 C8.21904196 6.23406233 8.21904196 6.23406233 12 8 C8.04 8 4.08 8 0 8 C0 5.36 0 2.72 0 0 Z " fill="#FCFCFC" transform="translate(0,120)"/>
<path d="M0 0 C0.66 0.33 1.32 0.66 2 1 C1.64950425 4.24208567 1.43778819 5.61527704 -1.0625 7.8125 C-1.701875 8.204375 -2.34125 8.59625 -3 9 C-4.32 8.01 -5.64 7.02 -7 6 C-6.360625 5.731875 -5.72125 5.46375 -5.0625 5.1875 C-2.66868314 4.11332248 -2.66868314 4.11332248 -2 1 C-1.34 0.67 -0.68 0.34 0 0 Z " fill="#D76148" transform="translate(315,72)"/>
<path d="M0 0 C0 0.66 0 1.32 0 2 C-1.52952876 3.37482452 -3.12522906 4.67665897 -4.75 5.9375 C-5.63171875 6.62714844 -6.5134375 7.31679687 -7.421875 8.02734375 C-9.60521903 9.69793275 -11.79576052 11.35712058 -14 13 C-13.51554362 8.77554039 -11.21254431 6.98851756 -8.125 4.25 C-6.79855469 3.05117187 -6.79855469 3.05117187 -5.4453125 1.828125 C-3 0 -3 0 0 0 Z " fill="#EAB3A8" transform="translate(312,74)"/>
<path d="M0 0 C0.433125 0.9590625 0.433125 0.9590625 0.875 1.9375 C1.82823451 4.15206079 1.82823451 4.15206079 4 5 C3.60196439 7.88575819 3.20990931 8.82189513 0.9375 10.75 C0.298125 11.1625 -0.34125 11.575 -1 12 C-1 11.34 -1 10.68 -1 10 C-1.66 10 -2.32 10 -3 10 C-2.21302675 6.58978257 -1.12880057 3.31114834 0 0 Z " fill="#F6A48E" transform="translate(297,85)"/>
<path d="M0 0 C0.33 1.32 0.66 2.64 1 4 C-0.32 4.33 -1.64 4.66 -3 5 C-2.67 6.32 -2.34 7.64 -2 9 C-2.99 9.495 -2.99 9.495 -4 10 C-4 9.34 -4 8.68 -4 8 C-6.97 7.505 -6.97 7.505 -10 7 C-6.80331012 4.3513141 -3.60513403 2.06007659 0 0 Z " fill="#4B61A4" transform="translate(299,111)"/>
<path d="M0 0 C0.66 0.99 1.32 1.98 2 3 C3.32 2.67 4.64 2.34 6 2 C6.33 2.66 6.66 3.32 7 4 C3.04 5.98 3.04 5.98 -1 8 C-1.12375 7.195625 -1.2475 6.39125 -1.375 5.5625 C-1.684375 4.2940625 -1.684375 4.2940625 -2 3 C-2.66 2.67 -3.32 2.34 -4 2 C-2.68 1.34 -1.36 0.68 0 0 Z " fill="#495FA4" transform="translate(306,107)"/>
<path d="M0 0 C1.65 1.65 3.3 3.3 5 5 C-1.5 7.125 -1.5 7.125 -6 6 C-4.02 4.02 -2.04 2.04 0 0 Z " fill="#E7E6DC" transform="translate(283,121)"/>
<path d="M0 0 C2.375 -0.125 2.375 -0.125 5 0 C7 2 7 2 7.1953125 3.9453125 C7.13020833 5.96354167 7.06510417 7.98177083 7 10 C6.34 10 5.68 10 5 10 C4.34 7.69 3.68 5.38 3 3 C1.68 3 0.36 3 -1 3 C-0.67 2.01 -0.34 1.02 0 0 Z " fill="#333335" transform="translate(188,55)"/>
<path d="M0 0 C0.36458333 4.49652778 0.36458333 4.49652778 -1.3125 6.8125 C-3 8 -3 8 -6 8 C-5.1875 4.5625 -5.1875 4.5625 -4 1 C-1 0 -1 0 0 0 Z " fill="#E7E7EA" transform="translate(29,112)"/>
<path d="M0 0 C5.23757909 0.14334427 10.10657161 1.11791216 15 3 C11.88016769 4.0399441 10.22213621 4.00875465 7 3.6875 C6.13375 3.60886719 5.2675 3.53023437 4.375 3.44921875 C2 3 2 3 -1 1 C-0.67 0.67 -0.34 0.34 0 0 Z " fill="#6A7EBC" transform="translate(293,28)"/>
<path d="M0 0 C2.16551116 3.24826674 2.55156953 4.23094157 2 8 C0 10.3125 0 10.3125 -2 12 C-2.66 11.34 -3.32 10.68 -4 10 C-2.68 6.7 -1.36 3.4 0 0 Z " fill="#ADB0B7" transform="translate(22,113)"/>
<path d="M0 0 C2.31 0.66 4.62 1.32 7 2 C7.33 1.34 7.66 0.68 8 0 C8.33 1.32 8.66 2.64 9 4 C7.02 4.99 7.02 4.99 5 6 C1.125 3.375 1.125 3.375 0 0 Z " fill="#CACCD0" transform="translate(36,93)"/>
<path d="M0 0 C0.66 0 1.32 0 2 0 C1.67 3.63 1.34 7.26 1 11 C-1.97 10.505 -1.97 10.505 -5 10 C-5 9.34 -5 8.68 -5 8 C-3.68 7.67 -2.36 7.34 -1 7 C-0.67 4.69 -0.34 2.38 0 0 Z " fill="#464646" transform="translate(19,10)"/>
<path d="M0 0 C3.3 0 6.6 0 10 0 C6.66666667 1.66666667 3.33333333 3.33333333 0 5 C-0.33 4.34 -0.66 3.68 -1 3 C-0.67 2.01 -0.34 1.02 0 0 Z " fill="#E5E5E5" transform="translate(10,0)"/>
<path d="M0 0 C1.98 0 3.96 0 6 0 C6 1.32 6 2.64 6 4 C3.33333333 4 0.66666667 4 -2 4 C-1.34 2.68 -0.68 1.36 0 0 Z " fill="#39519C" transform="translate(308,106)"/>
<path d="M0 0 C1.67542976 0.28604898 3.34385343 0.61781233 5 1 C4.01 1.66 3.02 2.32 2 3 C2.33 3.99 2.66 4.98 3 6 C1.02 6 -0.96 6 -3 6 C-1.125 1.125 -1.125 1.125 0 0 Z " fill="#D1D3D7" transform="translate(25,80)"/>
<path d="M0 0 C1.65 0.99 3.3 1.98 5 3 C2.33440687 4.77706209 -0.0280615 5.87548273 -3 7 C-1.125 1.125 -1.125 1.125 0 0 Z " fill="#F8E2C8" transform="translate(266,118)"/>
<path d="M0 0 C3.63 0.66 7.26 1.32 11 2 C10.67 2.66 10.34 3.32 10 4 C6.7 3.67 3.4 3.34 0 3 C0 2.01 0 1.02 0 0 Z " fill="#7185C1" transform="translate(294,18)"/>
<path d="M0 0 C1.65 0 3.3 0 5 0 C4 2 4 2 2 5 C1.31822584 6.32567199 0.64808564 7.65753688 0 9 C-1.125 7.3125 -1.125 7.3125 -2 5 C-1.125 2.25 -1.125 2.25 0 0 Z " fill="#B8BAC1" transform="translate(21,86)"/>
<path d="M0 0 C1.4540625 0.0309375 1.4540625 0.0309375 2.9375 0.0625 C2.133125 0.68125 1.32875 1.3 0.5 1.9375 C-2.10124519 3.80414041 -2.10124519 3.80414041 -3.0625 6.0625 C-3.7225 6.0625 -4.3825 6.0625 -5.0625 6.0625 C-3.98897059 0.08140756 -3.98897059 0.08140756 0 0 Z " fill="#3A3A3C" transform="translate(171.0625,54.9375)"/>
<path d="M0 0 C0.625 1.8125 0.625 1.8125 1 4 C-1 7 -1 7 -2 8 C-2.99 7.67 -3.98 7.34 -5 7 C-3.70700306 4.11562221 -2.34058637 2.12780579 0 0 Z " fill="#D65E44" transform="translate(303,82)"/>
<path d="M0 0 C0.33 0.66 0.66 1.32 1 2 C1.66 2 2.32 2 3 2 C3 2.66 3 3.32 3 4 C0.36 4 -2.28 4 -5 4 C-3 1 -3 1 0 0 Z " fill="#364F9B" transform="translate(292,117)"/>
<path d="M0 0 C0.33 0.66 0.66 1.32 1 2 C1.66 2.33 2.32 2.66 3 3 C1.68 4.32 0.36 5.64 -1 7 C-1.33 6.34 -1.66 5.68 -2 5 C-2.66 4.67 -3.32 4.34 -4 4 C-2.68 2.68 -1.36 1.36 0 0 Z " fill="#A1A4AC" transform="translate(30,108)"/>
<path d="M0 0 C0.33 0.66 0.66 1.32 1 2 C1.99 1.67 2.98 1.34 4 1 C4 1.66 4 2.32 4 3 C2.37373596 4.38232443 0.7074998 5.71937515 -1 7 C-1.625 4.625 -1.625 4.625 -2 2 C-1.34 1.34 -0.68 0.68 0 0 Z " fill="#AAADB4" transform="translate(14,94)"/>
<path d="M0 0 C-0.375 2.4375 -0.375 2.4375 -1 5 C-1.99 5.495 -1.99 5.495 -3 6 C-3 5.01 -3 4.02 -3 3 C-4.98 3.99 -4.98 3.99 -7 5 C-2.25 0 -2.25 0 0 0 Z " fill="#DDDFE2" transform="translate(37,103)"/>
<path d="M0 0 C2.31 0 4.62 0 7 0 C7.33 0.66 7.66 1.32 8 2 C5.29120665 3.35439668 2.99066732 3.06501451 0 3 C0 2.01 0 1.02 0 0 Z " fill="#E2998B" transform="translate(237,75)"/>
<path d="M0 0 C1.125 1.625 1.125 1.625 2 4 C1.125 7.25 1.125 7.25 0 10 C-0.99 10 -1.98 10 -3 10 C-2.690625 9.46375 -2.38125 8.9275 -2.0625 8.375 C-0.82172561 5.6015043 -0.4090325 2.99957163 0 0 Z " fill="#D8D8D8" transform="translate(29,16)"/>
<path d="M0 0 C1.64767247 0.28109113 3.29313145 0.57518526 4.9375 0.875 C5.85402344 1.03742188 6.77054688 1.19984375 7.71484375 1.3671875 C8.46894531 1.57601562 9.22304688 1.78484375 10 2 C10.33 2.66 10.66 3.32 11 4 C8 5 8 5 5.95703125 4.22265625 C5.24933594 3.83980469 4.54164062 3.45695312 3.8125 3.0625 C3.09707031 2.68222656 2.38164062 2.30195312 1.64453125 1.91015625 C1.10183594 1.60980469 0.55914062 1.30945313 0 1 C0 0.67 0 0.34 0 0 Z " fill="#DDDFE1" transform="translate(10,122)"/>
<path d="M0 0 C0.78375 0.04125 1.5675 0.0825 2.375 0.125 C1.75625 0.57875 1.1375 1.0325 0.5 1.5 C-1.68419833 3.09608919 -1.68419833 3.09608919 -3.625 5.125 C-4.615 5.455 -5.605 5.785 -6.625 6.125 C-3.85227273 0.18344156 -3.85227273 0.18344156 0 0 Z " fill="#535355" transform="translate(116.625,53.875)"/>
<path d="M0 0 C0.33 1.32 0.66 2.64 1 4 C2.65 4.33 4.3 4.66 6 5 C6 5.33 6 5.66 6 6 C4.02 6 2.04 6 0 6 C-1.125 2.25 -1.125 2.25 0 0 Z " fill="#556AAB" transform="translate(278,31)"/>
<path d="M0 0 C1.32 0.33 2.64 0.66 4 1 C4 2.32 4 3.64 4 5 C2.68 4.67 1.36 4.34 0 4 C0 2.68 0 1.36 0 0 Z " fill="#D8DAD7" transform="translate(287,16)"/>
</svg>
